name GIL03_xfast2.mot
datacolumns 153
datarows 4
range 0.06666667 0.09166667
endheader

                time	           pelvis_tx	           pelvis_ty	           pelvis_tz	         pelvis_tilt	         pelvis_list	     pelvis_rotation	       hip_flexion_r	     hip_adduction_r	      hip_rotation_r	        knee_angle_r	       ankle_angle_r	    subtalar_angle_r	         mtp_angle_r	       hip_flexion_l	     hip_adduction_l	      hip_rotation_l	        knee_angle_l	       ankle_angle_l	    subtalar_angle_l	         mtp_angle_l	    lumbar_extension	      lumbar_bending	     lumbar_rotation	     ground_force_vx	     ground_force_vy	     ground_force_vz	     ground_force_px	     ground_force_py	     ground_force_pz	     ground_force_vx	     ground_force_vy	     ground_force_vz	     ground_force_px	     ground_force_py	     ground_force_pz	     ground_torque_x	     ground_torque_y	     ground_torque_z	     ground_torque_x	     ground_torque_y	     ground_torque_z	    ground_marker_px	    ground_marker_py	    ground_marker_pz	    ground_marker_px	    ground_marker_py	    ground_marker_pz	    ground_marker_px	    ground_marker_py	    ground_marker_pz	    ground_marker_px	    ground_marker_py	    ground_marker_pz	    ground_marker_px	    ground_marker_py	    ground_marker_pz	    ground_marker_px	    ground_marker_py	    ground_marker_pz	    ground_marker_px	    ground_marker_py	    ground_marker_pz	    ground_marker_px	    ground_marker_py	    ground_marker_pz	    ground_marker_px	    ground_marker_py	    ground_marker_pz	    ground_marker_px	    ground_marker_py	    ground_marker_pz	    ground_marker_px	    ground_marker_py	    ground_marker_pz	    ground_marker_px	    ground_marker_py	    ground_marker_pz	    ground_marker_px	    ground_marker_py	    ground_marker_pz	    ground_marker_px	    ground_marker_py	    ground_marker_pz	    ground_marker_px	    ground_marker_py	    ground_marker_pz	    ground_marker_px	    ground_marker_py	    ground_marker_pz	    ground_marker_px	    ground_marker_py	    ground_marker_pz	    ground_marker_px	    ground_marker_py	    ground_marker_pz	    ground_marker_px	    ground_marker_py	    ground_marker_pz	    ground_marker_px	    ground_marker_py	    ground_marker_pz	    ground_marker_px	    ground_marker_py	    ground_marker_pz	    ground_marker_px	    ground_marker_py	    ground_marker_pz	    ground_marker_px	    ground_marker_py	    ground_marker_pz	    ground_marker_px	    ground_marker_py	    ground_marker_pz	    ground_marker_px	    ground_marker_py	    ground_marker_pz	    ground_marker_px	    ground_marker_py	    ground_marker_pz	    ground_marker_px	    ground_marker_py	    ground_marker_pz	    ground_marker_px	    ground_marker_py	    ground_marker_pz	    ground_marker_px	    ground_marker_py	    ground_marker_pz	    ground_marker_px	    ground_marker_py	    ground_marker_pz	    ground_marker_px	    ground_marker_py	    ground_marker_pz	    ground_marker_px	    ground_marker_py	    ground_marker_pz	    ground_marker_px	    ground_marker_py	    ground_marker_pz	    ground_marker_px	    ground_marker_py	    ground_marker_pz	    ground_marker_px	    ground_marker_py	    ground_marker_pz	    ground_marker_px	    ground_marker_py	    ground_marker_pz	    ground_marker_px	    ground_marker_py	    ground_marker_pz	
          0.06666667	          0.53721285	          0.89142132	         -0.26784307	          1.28249741	          3.72369552	        -11.17803192	        -12.76656532	         -5.38929033	         -4.62582445	        -35.85149002	        -14.13858223	          0.00000000	          0.00000000	         19.79457283	         -1.35039353	         -1.45044994	        -18.61606216	          2.56260228	          0.00000000	          0.00000000	        -23.95445633	         -7.60304642	         13.68276501	          0.00000000	          0.00000000	          0.00000000	          1.17915784	          0.00000000	         -0.23045659	        -23.19657289	        272.25706277	          5.83762988	          0.62014380	          0.00000000	         -0.34126553	          0.00000000	          0.00000000	          0.00000000	          0.00000000	         -0.20246613	          0.00000000	          0.48108160	          0.83050728	         -0.28738764	          0.47079736	          0.81139916	         -0.22395912	          0.48475984	          0.81333125	         -0.34058222	          0.38807520	          0.43857881	         -0.21451706	          0.61407727	          0.47132161	         -0.33193594	          0.09869380	          0.17693451	         -0.25013325	          0.62973708	          0.06586704	         -0.33858076	          0.53721285	          0.89142132	         -0.26784307	          0.51710010	          0.88878202	         -0.17052677	          0.55732554	          0.89406067	         -0.36515939	          0.38028932	          0.92253458	         -0.27833155	          0.39078638	          0.92265183	         -0.33177078	          0.38478273	          0.44069877	         -0.15965664	          0.63555652	          0.47818884	         -0.38155183	          0.39832994	          0.43691817	         -0.27256230	          0.61639088	          0.45213050	         -0.29522091	          0.08611275	          0.18605429	         -0.21490827	          0.63923341	          0.06684506	         -0.37587836	          0.12283836	          0.16965501	         -0.27273759	          0.64857912	          0.08070339	         -0.31091586	          0.46064645	          1.34132397	         -0.26913983	          0.55229229	          1.25163102	         -0.23097348	          0.54532081	          1.25149059	         -0.33428529	          0.53569609	          1.26382673	         -0.28654838	          0.56252569	          1.09138441	         -0.28747791	          0.56564844	          0.58266050	         -0.18696009	          0.67419398	          0.66674638	         -0.28607148	          0.49239153	          0.64643109	         -0.15968265	          0.61581278	          0.69032204	         -0.36688203	          0.46691498	          0.56483269	         -0.16228420	          0.65001470	          0.60936296	         -0.35777834	          0.15937591	          0.27271849	         -0.13668898	          0.60920948	          0.18386595	         -0.44264531	          0.17011803	          0.27274787	         -0.17540988	          0.61618376	          0.19047724	         -0.39971587	          0.12664592	          0.06601837	         -0.21684217	          0.75997555	          0.04900623	         -0.34143096	
          0.07500000	          0.55432361	          0.89295214	         -0.26896355	          1.51708317	          4.06102371	        -10.72395515	        -10.96593094	         -6.03323412	         -5.41751957	        -39.81091309	        -15.24687958	          0.00000000	          0.00000000	         18.77484322	         -0.50862324	         -1.75114536	        -19.19265366	          3.01290250	          0.00000000	          0.00000000	        -24.23623466	         -8.16933155	         13.35228729	          0.00000000	          0.00000000	          0.00000000	          1.18152527	          0.00000000	         -0.23133441	        -30.40099666	        314.92735725	         16.82458069	          0.62728076	          0.00000000	         -0.34280136	          0.00000000	          0.00000000	          0.00000000	          0.00000000	         -0.65578027	          0.00000000	          0.49827054	          0.83171910	         -0.28837857	          0.48857331	          0.81230658	         -0.22521931	          0.50174439	          0.81514633	         -0.34191588	          0.41823822	          0.43622872	         -0.21146508	          0.62556559	          0.47153729	         -0.33262762	          0.12094307	          0.18553282	         -0.24836975	          0.63088685	          0.06554186	         -0.33907145	          0.55432361	          0.89295214	         -0.26896355	          0.53482455	          0.88950694	         -0.17127772	          0.57382268	          0.89639735	         -0.36664939	          0.39724562	          0.92327291	         -0.27754706	          0.40726379	          0.92400759	         -0.33103344	          0.41455436	          0.43892229	         -0.15665473	          0.64679623	          0.47784173	         -0.38242486	          0.43092588	          0.43273655	         -0.26956040	          0.62664431	          0.45155969	         -0.29692218	          0.10892402	          0.19456854	         -0.21292756	          0.64085633	          0.06626263	         -0.37625125	          0.14401083	          0.17788459	         -0.27184191	          0.65111703	          0.07991319	         -0.31174713	          0.47764629	          1.34258878	         -0.26963252	          0.56947148	          1.25265491	         -0.23181917	          0.56194741	          1.25221431	         -0.33503434	          0.55248868	          1.26488566	         -0.28727543	          0.57907653	          1.09221637	         -0.28785932	          0.59111381	          0.58552015	         -0.18459938	          0.68926525	          0.66631055	         -0.28800553	          0.51580000	          0.64680004	         -0.15783542	          0.63095564	          0.68967432	         -0.36864251	          0.49374294	          0.56408966	         -0.15995929	          0.66326982	          0.60794437	         -0.35996556	          0.18524481	          0.27734825	         -0.13420536	          0.61464071	          0.18383342	         -0.44353598	          0.19637370	          0.27711603	         -0.17294426	          0.62224776	          0.18991017	         -0.40124595	          0.14311078	          0.07225440	         -0.21598056	          0.76126283	          0.04625910	         -0.34171504	
          0.08333334	          0.57116646	          0.89417076	         -0.27002150	          1.68012238	          4.35357571	        -10.31226730	         -8.98493004	         -6.59424734	         -6.22904587	        -43.70152283	        -15.53969193	          0.00000000	          0.00000000	         17.72862244	          0.23857191	         -2.01785755	        -19.59291267	          3.55657864	          0.00000000	          0.00000000	        -24.59889793	         -8.57051182	         13.04023075	          0.00000000	          0.00000000	          0.00000000	          1.18395422	          0.00000000	         -0.23217752	        -36.65783541	        355.43909098	         26.25966090	          0.63334534	          0.00000000	         -0.34393198	          0.00000000	          0.00000000	          0.00000000	          0.00000000	         -0.99329639	          0.00000000	          0.51500392	          0.83250225	         -0.28959256	          0.50595665	          0.81302840	         -0.22638701	          0.51840174	          0.81664854	         -0.34314165	          0.44899899	          0.43418387	         -0.20848489	          0.63620752	          0.47146136	         -0.33340716	          0.14489804	          0.19359030	         -0.24687219	          0.63182509	          0.06527830	         -0.33951524	          0.57116646	          0.89417076	         -0.27002150	          0.55223066	          0.89003301	         -0.17199226	          0.59010226	          0.89830852	         -0.36805072	          0.41398948	          0.92387307	         -0.27689618	          0.42351946	          0.92518193	         -0.33045352	          0.44479126	          0.43740341	         -0.15374067	          0.65719682	          0.47721556	         -0.38337302	          0.46507561	          0.42929009	         -0.26767451	          0.63553560	          0.44971508	         -0.29767138	          0.13342516	          0.20239884	         -0.21119261	          0.64215070	          0.06572460	         -0.37660202	          0.16724832	          0.18558678	         -0.27064082	          0.65296179	          0.07930195	         -0.31234351	          0.49472862	          1.34369493	         -0.26990086	          0.58656335	          1.25289273	         -0.23247284	          0.57862580	          1.25237989	         -0.33548653	          0.56931221	          1.26557755	         -0.28779802	          0.59502834	          1.09233952	         -0.28828308	          0.61645252	          0.58877057	         -0.18202356	          0.70372635	          0.66524619	         -0.28990668	          0.53843480	          0.64756292	         -0.15544194	          0.64529508	          0.68725777	         -0.37069169	          0.52043551	          0.56338656	         -0.15769574	          0.67545235	          0.60473132	         -0.36211604	          0.21250832	          0.28137472	         -0.13188757	          0.61937022	          0.18367913	         -0.44434574	          0.22416130	          0.28083470	         -0.17073022	          0.62736118	          0.18928604	         -0.40263918	          0.16298746	          0.07868420	         -0.21465066	          0.76224709	          0.04398988	         -0.34194136	
          0.09166667	          0.58776855	          0.89509249	         -0.27105087	          1.75719166	          4.60381222	         -9.93066502	         -6.84439373	         -7.07752228	         -7.02044010	        -47.39809036	        -15.10393143	          0.00000000	          0.00000000	         16.66462135	          0.91073012	         -2.17281914	        -19.79227829	          4.15549707	          0.00000000	          0.00000000	        -25.07891655	         -8.56595325	         12.59616947	          0.00000000	          0.00000000	          0.00000000	          1.18636890	          0.00000000	         -0.23298347	        -38.50046168	        387.65630421	         30.15876259	          0.63781488	          0.00000000	         -0.34451810	          0.00000000	          0.00000000	          0.00000000	          0.00000000	         -1.02723999	          0.00000000	          0.53143144	          0.83305800	         -0.29101142	          0.52296132	          0.81358987	         -0.22748819	          0.53472704	          0.81787276	         -0.34429079	          0.48010787	          0.43264470	         -0.20561238	          0.64591849	          0.47120431	         -0.33422664	          0.17053951	          0.20070718	         -0.24561767	          0.63259625	          0.06509791	         -0.33984530	          0.58776855	          0.89509249	         -0.27105087	          0.56936276	          0.89037132	         -0.17271130	          0.60617435	          0.89981359	         -0.36939043	          0.43055725	          0.92439848	         -0.27639553	          0.43960115	          0.92623335	         -0.33004850	          0.47530079	          0.43632466	         -0.15094657	          0.66673684	          0.47642732	         -0.38432220	          0.49738592	          0.42706984	         -0.26535460	          0.64409566	          0.44779477	         -0.29835808	          0.15952185	          0.20922145	         -0.20972383	          0.64310682	          0.06526554	         -0.37688240	          0.19278261	          0.19229586	         -0.26898760	          0.65384793	          0.07887880	         -0.31253248	          0.51181245	          1.34470046	         -0.27006367	          0.60334730	          1.25259912	         -0.23289749	          0.59552962	          1.25254416	         -0.33565927	          0.58611894	          1.26602113	         -0.28810123	          0.61064696	          1.09220195	         -0.28918830	          0.64157194	          0.59245020	         -0.17940389	          0.71740729	          0.66371506	         -0.29161221	          0.56072056	          0.64844614	         -0.15287280	          0.65915769	          0.68459159	         -0.37269109	          0.54626620	          0.56337035	         -0.15515794	          0.68725330	          0.60148650	         -0.36401060	          0.24091315	          0.28483278	         -0.12979338	          0.62324560	          0.18350753	         -0.44498202	          0.25308743	          0.28437322	         -0.16867933	          0.63126695	          0.18876906	         -0.40345085	          0.18635343	          0.08484966	         -0.21288192	          0.76291734	          0.04219820	         -0.34200493	
